<svg xmlns="http://www.w3.org/2000/svg" width="1920" height="1080"><path d="M935,600L1156,777L1003,446Z" fill="#c2c7cd" stroke="#c2c7cd" stroke-width="1.51"/><path d="M1156,777L1324,467L1003,446Z" fill="#bfc4cb" stroke="#bfc4cb" stroke-width="1.51"/><path d="M1156,777L1537,777L1324,467Z" fill="#b0b5ba" stroke="#b0b5ba" stroke-width="1.51"/><path d="M893,968L1219,974L1156,777Z" fill="#a9aeb2" stroke="#a9aeb2" stroke-width="1.51"/><path d="M1324,467L1135,173L1003,446Z" fill="#c9ced3" stroke="#c9ced3" stroke-width="1.51"/><path d="M1135,173L1045,175L1003,446Z" fill="#d2d6dc" stroke="#d2d6dc" stroke-width="1.51"/><path d="M1003,446L667,581L935,600Z" fill="#ccd1d8" stroke="#ccd1d8" stroke-width="1.51"/><path d="M1324,467L1496,381L1135,173Z" fill="#c3c8cd" stroke="#c3c8cd" stroke-width="1.51"/><path d="M1537,777L1496,381L1324,467Z" fill="#b5babf" stroke="#b5babf" stroke-width="1.51"/><path d="M935,600L893,968L1156,777Z" fill="#b6bbc1" stroke="#b6bbc1" stroke-width="1.51"/><path d="M1219,974L1537,777L1156,777Z" fill="#a4a9ae" stroke="#a4a9ae" stroke-width="1.51"/><path d="M594,417L667,581L1003,446Z" fill="#d2d6dc" stroke="#d2d6dc" stroke-width="1.51"/><path d="M935,600L667,581L893,968Z" fill="#c0c4ca" stroke="#c0c4ca" stroke-width="1.51"/><path d="M893,968L995,1108L1219,974Z" fill="#a2a7ac" stroke="#a2a7ac" stroke-width="1.51"/><path d="M1859,473L1693,215L1496,381Z" fill="#b3b8bc" stroke="#b3b8bc" stroke-width="1.51"/><path d="M1219,974L1601,874L1537,777Z" fill="#9ba1a4" stroke="#9ba1a4" stroke-width="1.51"/><path d="M1700,1003L1601,874L1519,1274Z" fill="#888d90" stroke="#888d90" stroke-width="1.51"/><path d="M732,118L594,417L1003,446Z" fill="#d8dce2" stroke="#d8dce2" stroke-width="1.51"/><path d="M1496,381L1483,99L1135,173Z" fill="#c7cbcf" stroke="#c7cbcf" stroke-width="1.51"/><path d="M928,-164L732,118L1045,175Z" fill="#e2e6ea" stroke="#e2e6ea" stroke-width="1.51"/><path d="M1693,215L1483,99L1496,381Z" fill="#bec2c6" stroke="#bec2c6" stroke-width="1.51"/><path d="M995,1108L1181,1201L1219,974Z" fill="#9a9fa3" stroke="#9a9fa3" stroke-width="1.51"/><path d="M1045,175L732,118L1003,446Z" fill="#d8dce1" stroke="#d8dce1" stroke-width="1.51"/><path d="M1141,-174L1045,175L1135,173Z" fill="#dadde1" stroke="#dadde1" stroke-width="1.51"/><path d="M429,438L486,770L667,581Z" fill="#d0d5da" stroke="#d0d5da" stroke-width="1.51"/><path d="M667,581L486,770L893,968Z" fill="#bfc4c9" stroke="#bfc4c9" stroke-width="1.51"/><path d="M893,968L609,1252L995,1108Z" fill="#a4a9ad" stroke="#a4a9ad" stroke-width="1.51"/><path d="M1859,473L1496,381L1537,777Z" fill="#adb2b7" stroke="#adb2b7" stroke-width="1.51"/><path d="M486,770L593,1023L893,968Z" fill="#b5b9bd" stroke="#b5b9bd" stroke-width="1.51"/><path d="M995,1108L1047,1403L1181,1201Z" fill="#9ca1a5" stroke="#9ca1a5" stroke-width="1.51"/><path d="M1519,1274L1601,874L1219,974Z" fill="#909598" stroke="#909598" stroke-width="1.51"/><path d="M1870,756L1859,473L1537,777Z" fill="#9ea3a8" stroke="#9ea3a8" stroke-width="1.51"/><path d="M594,417L429,438L667,581Z" fill="#d7dbe1" stroke="#d7dbe1" stroke-width="1.51"/><path d="M504,86L429,438L594,417Z" fill="#e0e3e8" stroke="#e0e3e8" stroke-width="1.51"/><path d="M1483,99L1433,-51L1135,173Z" fill="#ced2d5" stroke="#ced2d5" stroke-width="1.51"/><path d="M1699,-134L1433,-51L1483,99Z" fill="#c9cdd0" stroke="#c9cdd0" stroke-width="1.51"/><path d="M1870,756L1537,777L1601,874Z" fill="#989da1" stroke="#989da1" stroke-width="1.51"/><path d="M1700,1003L1870,756L1601,874Z" fill="#909599" stroke="#909599" stroke-width="1.51"/><path d="M1433,-51L1141,-174L1135,173Z" fill="#d6dade" stroke="#d6dade" stroke-width="1.51"/><path d="M732,118L504,86L594,417Z" fill="#e2e6ea" stroke="#e2e6ea" stroke-width="1.51"/><path d="M1141,-174L928,-164L1045,175Z" fill="#dfe3e7" stroke="#dfe3e7" stroke-width="1.51"/><path d="M2045,957L1977,621L1870,756Z" fill="#909598" stroke="#909598" stroke-width="1.51"/><path d="M1181,1201L1519,1274L1219,974Z" fill="#93989b" stroke="#93989b" stroke-width="1.51"/><path d="M643,-151L504,86L732,118Z" fill="#eaedf1" stroke="#eaedf1" stroke-width="1.51"/><path d="M486,770L438,1006L593,1023Z" fill="#b7bcbf" stroke="#b7bcbf" stroke-width="1.51"/><path d="M609,1252L1047,1403L995,1108Z" fill="#a3a8ac" stroke="#a3a8ac" stroke-width="1.51"/><path d="M257,971L438,1006L486,770Z" fill="#bcc0c3" stroke="#bcc0c3" stroke-width="1.51"/><path d="M1181,1201L1285,1457L1519,1274Z" fill="#92979a" stroke="#92979a" stroke-width="1.51"/><path d="M609,1252L893,968L593,1023Z" fill="#a7acb0" stroke="#a7acb0" stroke-width="1.51"/><path d="M1859,473L1938,460L1693,215Z" fill="#abb1b4" stroke="#abb1b4" stroke-width="1.51"/><path d="M1693,215L1699,-134L1483,99Z" fill="#c3c7c9" stroke="#c3c7c9" stroke-width="1.51"/><path d="M1977,621L1938,460L1859,473Z" fill="#a2a7ab" stroke="#a2a7ab" stroke-width="1.51"/><path d="M391,1176L609,1252L593,1023Z" fill="#acb0b3" stroke="#acb0b3" stroke-width="1.51"/><path d="M1870,756L1977,621L1859,473Z" fill="#9ca1a5" stroke="#9ca1a5" stroke-width="1.51"/><path d="M2045,957L1870,756L1700,1003Z" fill="#888d90" stroke="#888d90" stroke-width="1.51"/><path d="M1047,1403L1285,1457L1181,1201Z" fill="#989da1" stroke="#989da1" stroke-width="1.51"/><path d="M928,-164L643,-151L732,118Z" fill="#e8ebee" stroke="#e8ebee" stroke-width="1.51"/><path d="M766,-420L643,-151L928,-164Z" fill="#e7ebee" stroke="#e7ebee" stroke-width="1.51"/><path d="M1519,1274L1776,1217L1700,1003Z" fill="#84898c" stroke="#84898c" stroke-width="1.51"/><path d="M1523,1477L1776,1217L1519,1274Z" fill="#868b8e" stroke="#868b8e" stroke-width="1.51"/><path d="M1190,-506L1020,-420L1141,-174Z" fill="#dcdfe3" stroke="#dcdfe3" stroke-width="1.51"/><path d="M2015,-74L1699,-134L1693,215Z" fill="#bec1c3" stroke="#bec1c3" stroke-width="1.51"/><path d="M643,-151L513,-119L504,86Z" fill="#edf0f3" stroke="#edf0f3" stroke-width="1.51"/><path d="M157,181L106,434L429,438Z" fill="#e5e9ec" stroke="#e5e9ec" stroke-width="1.51"/><path d="M257,971L391,1176L438,1006Z" fill="#b2b6b9" stroke="#b2b6b9" stroke-width="1.51"/><path d="M438,1006L391,1176L593,1023Z" fill="#aeb3b6" stroke="#aeb3b6" stroke-width="1.51"/><path d="M90,730L257,971L486,770Z" fill="#c5c9cd" stroke="#c5c9cd" stroke-width="1.51"/><path d="M90,730L486,770L429,438Z" fill="#d2d6db" stroke="#d2d6db" stroke-width="1.51"/><path d="M481,1490L650,1437L609,1252Z" fill="#abafb2" stroke="#abafb2" stroke-width="1.51"/><path d="M609,1252L650,1437L1047,1403Z" fill="#a6aaae" stroke="#a6aaae" stroke-width="1.51"/><path d="M1047,1403L1313,1756L1285,1457Z" fill="#969c9f" stroke="#969c9f" stroke-width="1.51"/><path d="M1313,1756L1523,1477L1285,1457Z" fill="#909598" stroke="#909598" stroke-width="1.51"/><path d="M1285,1457L1523,1477L1519,1274Z" fill="#8d9295" stroke="#8d9295" stroke-width="1.51"/><path d="M2046,1155L1700,1003L1776,1217Z" fill="#7d8284" stroke="#7d8284" stroke-width="1.51"/><path d="M2046,1155L2045,957L1700,1003Z" fill="#7d8284" stroke="#7d8284" stroke-width="1.51"/><path d="M1938,460L2049,215L1693,215Z" fill="#adb1b4" stroke="#adb1b4" stroke-width="1.51"/><path d="M2307,361L2049,215L1938,460Z" fill="#aaaeb2" stroke="#aaaeb2" stroke-width="1.51"/><path d="M2307,361L1938,460L1977,621Z" fill="#a3a9ac" stroke="#a3a9ac" stroke-width="1.51"/><path d="M1141,-174L1020,-420L928,-164Z" fill="#e0e3e7" stroke="#e0e3e7" stroke-width="1.51"/><path d="M643,-151L455,-434L513,-119Z" fill="#eef0f3" stroke="#eef0f3" stroke-width="1.51"/><path d="M1190,-506L1141,-174L1493,-493Z" fill="#d5d8db" stroke="#d5d8db" stroke-width="1.51"/><path d="M157,181L429,438L504,86Z" fill="#e7eaee" stroke="#e7eaee" stroke-width="1.51"/><path d="M257,971L230,1181L391,1176Z" fill="#b2b5b8" stroke="#b2b5b8" stroke-width="1.51"/><path d="M106,434L90,730L429,438Z" fill="#dee2e6" stroke="#dee2e6" stroke-width="1.51"/><path d="M81,-51L157,181L504,86Z" fill="#f2f5f6" stroke="#f2f5f6" stroke-width="1.51"/><path d="M-153,1046L230,1181L257,971Z" fill="#b7bbbd" stroke="#b7bbbd" stroke-width="1.51"/><path d="M391,1176L481,1490L609,1252Z" fill="#adb1b4" stroke="#adb1b4" stroke-width="1.51"/><path d="M513,-119L81,-51L504,86Z" fill="#f2f5f7" stroke="#f2f5f7" stroke-width="1.51"/><path d="M1020,-420L766,-420L928,-164Z" fill="#e4e8eb" stroke="#e4e8eb" stroke-width="1.51"/><path d="M2337,764L2307,361L1977,621Z" fill="#9ea3a7" stroke="#9ea3a7" stroke-width="1.51"/><path d="M1995,1583L2046,1155L1776,1217Z" fill="#7a7f81" stroke="#7a7f81" stroke-width="1.51"/><path d="M1020,-420L1190,-506L766,-420Z" fill="#e1e5e9" stroke="#e1e5e9" stroke-width="1.51"/><path d="M1493,-493L1141,-174L1433,-51Z" fill="#d1d5d8" stroke="#d1d5d8" stroke-width="1.51"/><path d="M650,1437L876,1717L1047,1403Z" fill="#a3a9ac" stroke="#a3a9ac" stroke-width="1.51"/><path d="M230,1181L481,1490L391,1176Z" fill="#b0b4b6" stroke="#b0b4b6" stroke-width="1.51"/><path d="M1699,-134L1493,-493L1433,-51Z" fill="#c9cdd0" stroke="#c9cdd0" stroke-width="1.51"/><path d="M2049,215L2015,-74L1693,215Z" fill="#b4b8ba" stroke="#b4b8ba" stroke-width="1.51"/><path d="M2015,-74L1770,-323L1699,-134Z" fill="#bdc0c2" stroke="#bdc0c2" stroke-width="1.51"/><path d="M1770,-323L1493,-493L1699,-134Z" fill="#c4c8ca" stroke="#c4c8ca" stroke-width="1.51"/><path d="M481,1490L667,1647L650,1437Z" fill="#aaaeb2" stroke="#aaaeb2" stroke-width="1.51"/><path d="M667,1647L876,1717L650,1437Z" fill="#a7abaf" stroke="#a7abaf" stroke-width="1.51"/><path d="M876,1717L1313,1756L1047,1403Z" fill="#9ca1a5" stroke="#9ca1a5" stroke-width="1.51"/><path d="M1523,1477L1806,1561L1776,1217Z" fill="#83888a" stroke="#83888a" stroke-width="1.51"/><path d="M1528,1775L1806,1561L1523,1477Z" fill="#868b8e" stroke="#868b8e" stroke-width="1.51"/><path d="M-116,327L-60,694L106,434Z" fill="#e5e9ec" stroke="#e5e9ec" stroke-width="1.51"/><path d="M106,434L-60,694L90,730Z" fill="#dcdfe3" stroke="#dcdfe3" stroke-width="1.51"/><path d="M90,730L-153,1046L257,971Z" fill="#c4c8ca" stroke="#c4c8ca" stroke-width="1.51"/><path d="M2049,215L2284,120L2015,-74Z" fill="#b5b9bb" stroke="#b5b9bb" stroke-width="1.51"/><path d="M2337,764L1977,621L2045,957Z" fill="#8f9498" stroke="#8f9498" stroke-width="1.51"/><path d="M766,-420L455,-434L643,-151Z" fill="#ebeef1" stroke="#ebeef1" stroke-width="1.51"/><path d="M1190,-506L455,-434L766,-420Z" fill="#e7eaee" stroke="#e7eaee" stroke-width="1.51"/><path d="M157,181L-116,327L106,434Z" fill="#eceff2" stroke="#eceff2" stroke-width="1.51"/><path d="M193,-381L81,-51L513,-119Z" fill="#f5f7f9" stroke="#f5f7f9" stroke-width="1.51"/><path d="M2363,879L2337,764L2045,957Z" fill="#898e91" stroke="#898e91" stroke-width="1.51"/><path d="M2363,879L2045,957L2298,1213Z" fill="#7e8386" stroke="#7e8386" stroke-width="1.51"/><path d="M1313,1756L1528,1775L1523,1477Z" fill="#8d9295" stroke="#8d9295" stroke-width="1.51"/><path d="M2307,361L2284,120L2049,215Z" fill="#aeb3b5" stroke="#aeb3b5" stroke-width="1.51"/><path d="M2015,-74L2110,-336L1770,-323Z" fill="#b9bcbe" stroke="#b9bcbe" stroke-width="1.51"/><path d="M-210,89L-116,327L157,181Z" fill="#f2f5f7" stroke="#f2f5f7" stroke-width="1.51"/><path d="M2337,764L2363,879L2307,361Z" fill="#979ca0" stroke="#979ca0" stroke-width="1.51"/><path d="M2388,-444L2289,-203L2284,120Z" fill="#b9bcbe" stroke="#b9bcbe" stroke-width="1.51"/><path d="M2298,1213L2045,957L2046,1155Z" fill="#7a7f81" stroke="#7a7f81" stroke-width="1.51"/><path d="M1806,1561L1995,1583L1776,1217Z" fill="#7c8183" stroke="#7c8183" stroke-width="1.51"/><path d="M1833,1832L1995,1583L1806,1561Z" fill="#7b8083" stroke="#7b8083" stroke-width="1.51"/><path d="M2302,1383L2298,1213L2046,1155Z" fill="#7a7f81" stroke="#7a7f81" stroke-width="1.51"/><path d="M667,1647L430,1732L876,1717Z" fill="#a9adb1" stroke="#a9adb1" stroke-width="1.51"/><path d="M876,1717L203,1783L1313,1756Z" fill="#a5aaae" stroke="#a5aaae" stroke-width="1.51"/><path d="M1313,1756L1833,1832L1528,1775Z" fill="#888d90" stroke="#888d90" stroke-width="1.51"/><path d="M481,1490L430,1732L667,1647Z" fill="#acb0b3" stroke="#acb0b3" stroke-width="1.51"/><path d="M86,1514L430,1732L481,1490Z" fill="#b0b5b7" stroke="#b0b5b7" stroke-width="1.51"/><path d="M86,1514L481,1490L230,1181Z" fill="#b2b6b9" stroke="#b2b6b9" stroke-width="1.51"/><path d="M455,-434L193,-381L513,-119Z" fill="#f2f4f6" stroke="#f2f4f6" stroke-width="1.51"/><path d="M81,-51L-210,89L157,181Z" fill="#f8fbfc" stroke="#f8fbfc" stroke-width="1.51"/><path d="M1770,-323L2110,-336L1493,-493Z" fill="#bec2c4" stroke="#bec2c4" stroke-width="1.51"/><path d="M2289,-203L2110,-336L2015,-74Z" fill="#b9bcbe" stroke="#b9bcbe" stroke-width="1.51"/><path d="M-60,694L-153,1046L90,730Z" fill="#cdd0d3" stroke="#cdd0d3" stroke-width="1.51"/><path d="M-461,868L-153,1046L-60,694Z" fill="#c9cccf" stroke="#c9cccf" stroke-width="1.51"/><path d="M-137,1388L86,1514L230,1181Z" fill="#b7bbbd" stroke="#b7bbbd" stroke-width="1.51"/><path d="M2388,-444L2284,120L2307,361Z" fill="#b8bcbe" stroke="#b8bcbe" stroke-width="1.51"/><path d="M2284,120L2289,-203L2015,-74Z" fill="#b9bcbe" stroke="#b9bcbe" stroke-width="1.51"/><path d="M1995,1583L2302,1383L2046,1155Z" fill="#7a7f81" stroke="#7a7f81" stroke-width="1.51"/><path d="M2298,1213L2302,1383L2363,879Z" fill="#7a7f81" stroke="#7a7f81" stroke-width="1.51"/><path d="M-116,327L-416,426L-60,694Z" fill="#e5e9ec" stroke="#e5e9ec" stroke-width="1.51"/><path d="M-123,-159L-210,89L81,-51Z" fill="#fcfeff" stroke="#fcfeff" stroke-width="1.51"/><path d="M1995,1583L2102,1732L2302,1383Z" fill="#7a7f81" stroke="#7a7f81" stroke-width="1.51"/><path d="M1528,1775L1833,1832L1806,1561Z" fill="#828789" stroke="#828789" stroke-width="1.51"/><path d="M203,1783L1833,1832L1313,1756Z" fill="#9a9fa4" stroke="#9a9fa4" stroke-width="1.51"/><path d="M-153,1046L-170,1238L230,1181Z" fill="#b9bcbe" stroke="#b9bcbe" stroke-width="1.51"/><path d="M-401,1274L-170,1238L-153,1046Z" fill="#b9bcbe" stroke="#b9bcbe" stroke-width="1.51"/><path d="M193,-381L-123,-159L81,-51Z" fill="#fafcfe" stroke="#fafcfe" stroke-width="1.51"/><path d="M-170,1238L-137,1388L230,1181Z" fill="#b9bcbe" stroke="#b9bcbe" stroke-width="1.51"/><path d="M86,1514L203,1783L430,1732Z" fill="#b3b7b9" stroke="#b3b7b9" stroke-width="1.51"/><path d="M1833,1832L2102,1732L1995,1583Z" fill="#7a7f81" stroke="#7a7f81" stroke-width="1.51"/><path d="M430,1732L203,1783L876,1717Z" fill="#adb1b4" stroke="#adb1b4" stroke-width="1.51"/><path d="M-40,1754L203,1783L86,1514Z" fill="#b7bbbc" stroke="#b7bbbc" stroke-width="1.51"/><path d="M-337,35L-416,426L-210,89Z" fill="#f3f6f8" stroke="#f3f6f8" stroke-width="1.51"/><path d="M-210,89L-416,426L-116,327Z" fill="#eff1f4" stroke="#eff1f4" stroke-width="1.51"/><path d="M-170,1238L-289,1477L-137,1388Z" fill="#b9bcbe" stroke="#b9bcbe" stroke-width="1.51"/><path d="M-330,-96L-337,35L-210,89Z" fill="#fbfdfe" stroke="#fbfdfe" stroke-width="1.51"/><path d="M-123,-159L-330,-96L-210,89Z" fill="#fcfeff" stroke="#fcfeff" stroke-width="1.51"/><path d="M-337,35L-463,-399L-416,426Z" fill="#fbfdfe" stroke="#fbfdfe" stroke-width="1.51"/><path d="M-166,-472L-330,-96L-123,-159Z" fill="#fcfeff" stroke="#fcfeff" stroke-width="1.51"/><path d="M-486,657L-461,868L-60,694Z" fill="#d3d7da" stroke="#d3d7da" stroke-width="1.51"/><path d="M-463,-399L-486,657L-416,426Z" fill="#f1f4f6" stroke="#f1f4f6" stroke-width="1.51"/><path d="M-416,426L-486,657L-60,694Z" fill="#dfe2e6" stroke="#dfe2e6" stroke-width="1.51"/><path d="M1833,1832L2252,1754L2102,1732Z" fill="#7a7f81" stroke="#7a7f81" stroke-width="1.51"/><path d="M2102,1732L2252,1754L2302,1383Z" fill="#7a7f81" stroke="#7a7f81" stroke-width="1.51"/><path d="M2289,-203L2388,-444L2110,-336Z" fill="#b9bcbe" stroke="#b9bcbe" stroke-width="1.51"/><path d="M2110,-336L2388,-444L1493,-493Z" fill="#b9bcbe" stroke="#b9bcbe" stroke-width="1.51"/><path d="M2363,879L2388,-444L2307,361Z" fill="#adb2b5" stroke="#adb2b5" stroke-width="1.51"/><path d="M-289,1477L-40,1754L-137,1388Z" fill="#b9bcbe" stroke="#b9bcbe" stroke-width="1.51"/><path d="M-137,1388L-40,1754L86,1514Z" fill="#b9bcbe" stroke="#b9bcbe" stroke-width="1.51"/><path d="M-401,1274L-289,1477L-170,1238Z" fill="#b9bcbe" stroke="#b9bcbe" stroke-width="1.51"/><path d="M-461,868L-401,1274L-153,1046Z" fill="#babec0" stroke="#babec0" stroke-width="1.51"/><path d="M193,-381L-166,-472L-123,-159Z" fill="#fcfeff" stroke="#fcfeff" stroke-width="1.51"/><path d="M455,-434L-166,-472L193,-381Z" fill="#f8fafb" stroke="#f8fafb" stroke-width="1.51"/><path d="M1190,-506L-166,-472L455,-434Z" fill="#eff2f4" stroke="#eff2f4" stroke-width="1.51"/><path d="M-330,-96L-463,-399L-337,35Z" fill="#fcfeff" stroke="#fcfeff" stroke-width="1.51"/><path d="M-166,-472L-463,-399L-330,-96Z" fill="#fcfeff" stroke="#fcfeff" stroke-width="1.51"/><path d="M-40,1754L-463,1707L203,1783Z" fill="#b9bcbe" stroke="#b9bcbe" stroke-width="1.51"/><path d="M-289,1477L-463,1707L-40,1754Z" fill="#b9bcbe" stroke="#b9bcbe" stroke-width="1.51"/><path d="M-401,1274L-463,1707L-289,1477Z" fill="#b9bcbe" stroke="#b9bcbe" stroke-width="1.51"/><path d="M-461,868L-463,1707L-401,1274Z" fill="#b9bcbe" stroke="#b9bcbe" stroke-width="1.51"/><path d="M-486,657L-463,1707L-461,868Z" fill="#b9bcbe" stroke="#b9bcbe" stroke-width="1.51"/></svg>